<svg xmlns="http://www.w3.org/2000/svg" viewBox="0 0 1440 960">
  <defs>
    <linearGradient id="tradeGradient" x1="0" y1="0" x2="1" y2="1">
      <stop offset="0%" stop-color="#0b1d3c" />
      <stop offset="50%" stop-color="#0f3e7c" />
      <stop offset="100%" stop-color="#0b8bd9" />
    </linearGradient>
    <linearGradient id="accentGradient" x1="0" y1="0" x2="1" y2="0">
      <stop offset="0%" stop-color="#ffb347" stop-opacity="0.75" />
      <stop offset="100%" stop-color="#ff7a18" stop-opacity="0.9" />
    </linearGradient>
  </defs>
  <rect fill="url(#tradeGradient)" width="1440" height="960" rx="32" />
  <g opacity="0.2" stroke="#ffffff" stroke-width="3" fill="none">
    <path d="M160 720 C420 480 780 1120 1120 320" />
    <path d="M80 560 C420 180 900 1080 1340 260" />
    <path d="M200 220 C420 520 780 120 1220 600" />
  </g>
  <g opacity="0.35">
    <circle cx="340" cy="260" r="120" fill="url(#accentGradient)" />
    <circle cx="1160" cy="700" r="180" fill="url(#accentGradient)" />
    <circle cx="940" cy="260" r="90" fill="url(#accentGradient)" />
  </g>
  <g transform="translate(200,650)" fill="#ffffff" opacity="0.85">
    <path d="M40 0 h64 l24 64 h72 l-92 -232 h-72 l-88 232 h68 z" opacity="0.65" />
    <circle cx="300" cy="-24" r="90" fill="none" stroke="#ffffff" stroke-width="16" opacity="0.4" />
    <rect x="420" y="-90" width="320" height="180" rx="28" opacity="0.25" />
  </g>
</svg>
